<?xml version="1.0" standalone="no"?>
<!DOCTYPE svg PUBLIC "-//W3C//DTD SVG 20010904//EN"
 "http://www.w3.org/TR/2001/REC-SVG-20010904/DTD/svg10.dtd">
<svg version="1.0" xmlns="http://www.w3.org/2000/svg"
 width="1000" height="1000" viewBox="0 0 1122.000000 1180.000000"
 preserveAspectRatio="xMidYMid meet" opacity="0.4">
<g transform="translate(0.000000,0.000000) scale(0.100000,-0.100000) rotate(-90 10 10)"
fill="#9e9e9e" stroke="none">
<path d="M3811 8948 c-24 -12 -101 -77 -170 -144 l-126 -122 -235 10 c-321 13
-1109 4 -1325 -16 -214 -19 -416 -49 -520 -76 -345 -91 -655 -332 -888 -690
-159 -244 -276 -643 -317 -1075 -17 -186 -23 -549 -11 -720 11 -170 42 -393
91 -668 109 -606 502 -1123 980 -1286 84 -29 234 -64 390 -92 69 -12 145 -26
170 -31 25 -5 403 -11 840 -14 l795 -6 85 -83 c127 -123 216 -185 269 -185 22
0 71 51 71 74 0 10 -16 54 -35 97 -19 44 -35 87 -35 95 0 33 49 38 550 59 190
8 482 20 650 27 211 9 683 13 1525 12 1158 0 1240 -2 1610 -24 461 -28 1266
-34 1585 -12 494 34 663 63 815 139 108 53 139 107 173 308 24 134 73 527 96
770 52 528 59 1499 16 2145 -35 516 -91 936 -139 1032 -60 120 -268 195 -646
233 -88 9 -178 21 -200 26 -115 28 -1095 18 -1602 -16 -120 -8 -501 -31 -848
-50 l-630 -36 -880 0 c-1025 0 -2039 22 -2062 45 -3 3 9 42 26 86 46 121 49
153 18 184 -31 31 -31 31 -86 4z m23 -56 c-7 -22 -60 -150 -118 -285 -58 -136
-106 -251 -106 -255 0 -5 -9 -17 -19 -26 -19 -17 -22 -16 -80 38 -34 31 -65
56 -71 56 -29 0 13 106 79 200 80 114 279 310 316 310 10 0 10 -7 -1 -38z m23
-98 c-105 -270 -204 -482 -222 -475 -15 6 -7 35 32 120 19 42 71 162 115 266
44 105 85 199 92 210 10 19 11 19 14 -6 2 -15 -12 -67 -31 -115z m5898 -94
c342 -16 545 -44 710 -100 145 -49 143 -49 -147 -50 -147 0 -269 -3 -271 -7
-3 -5 -1 -18 3 -29 7 -17 20 -24 59 -29 l51 -7 0 -286 c0 -158 -3 -338 -7
-400 l-6 -114 -471 7 c-345 4 -466 3 -454 -5 12 -7 168 -14 458 -19 333 -6
443 -11 455 -21 8 -7 15 -26 15 -43 l0 -30 -627 7 -628 8 -96 93 c-89 86 -100
94 -155 105 -80 17 -230 9 -614 -35 -711 -80 -1297 -163 -1385 -196 -151 -57
-205 -145 -289 -479 l-42 -165 -154 0 -155 0 2 37 c4 65 72 324 124 468 32 89
99 218 116 225 9 3 147 21 307 40 707 85 1257 175 1298 212 22 19 24 76 3 93
-8 6 -36 18 -62 26 -48 15 -517 74 -738 93 -66 6 -168 15 -227 20 -59 5 -112
12 -118 16 -16 10 -12 34 14 68 13 18 33 51 45 74 23 46 23 46 184 57 114 8
157 36 157 104 0 50 -28 64 -148 76 -59 6 -113 15 -119 19 -7 5 -13 21 -13 37
0 23 5 31 23 34 12 3 153 10 312 16 326 12 612 30 980 59 138 11 275 22 305
24 133 8 1106 6 1305 -3z m-6696 -30 c162 -5 296 -12 299 -15 3 -2 -13 -25
-36 -49 -73 -79 -104 -159 -121 -304 -8 -78 -12 -87 -61 -154 l-53 -72 13 -46
c25 -90 30 -81 -74 -129 -53 -24 -106 -53 -118 -65 -13 -12 -35 -28 -50 -35
-61 -31 -250 -225 -330 -338 -79 -112 -81 -113 -137 -129 -31 -8 -81 -24 -111
-36 -30 -11 -77 -28 -105 -38 -27 -10 -232 -55 -455 -100 -535 -108 -846 -178
-890 -200 -42 -22 -86 -64 -107 -103 -43 -85 -67 -367 -52 -631 11 -201 29
-294 67 -356 51 -83 90 -96 687 -229 149 -33 329 -74 400 -91 72 -17 183 -42
247 -55 65 -14 136 -34 158 -45 35 -18 85 -33 182 -54 22 -5 35 -21 63 -75 44
-88 127 -191 251 -312 108 -104 173 -151 309 -224 50 -27 92 -50 94 -51 2 -2
-5 -23 -14 -47 -19 -51 -17 -58 44 -132 l40 -48 -2 -116 c-2 -133 12 -199 54
-266 16 -25 29 -49 29 -54 0 -18 -80 -21 -584 -21 -448 0 -551 3 -722 20 -640
64 -878 152 -1147 428 -78 80 -105 122 -77 122 5 0 14 9 20 21 9 17 3 46 -34
157 -51 156 -86 291 -115 443 -26 133 -43 151 -135 147 l-61 -3 3 -45 c4 -70
71 -318 126 -465 6 -15 1 -13 -16 8 -30 35 -106 227 -152 385 -35 122 -90 421
-123 677 -22 175 -25 717 -4 890 50 423 110 651 240 920 77 156 122 223 250
364 246 270 465 405 760 466 109 23 384 52 656 70 417 27 494 28 894 15z m406
-57 c-10 -44 -32 -71 -75 -93 -50 -26 -73 -60 -73 -110 0 -54 25 -87 86 -116
58 -27 113 -30 201 -12 69 13 69 13 158 212 l63 139 210 -7 c694 -21 1182 -29
1914 -30 l823 -1 -4 -90 c-6 -110 -32 -191 -96 -298 l-47 -78 -70 6 c-519 44
-1546 72 -2211 58 -470 -9 -470 -9 -520 -34 -64 -31 -68 -55 -17 -99 45 -40
105 -68 334 -156 449 -172 756 -265 970 -294 154 -21 464 -23 674 -6 304 26
385 30 385 20 0 -5 -7 -19 -15 -31 -39 -55 -152 -391 -180 -533 -8 -41 -18
-88 -23 -105 l-8 -30 -180 -3 c-98 -1 -340 1 -537 6 l-357 8 -45 44 -45 44 0
218 c0 242 -4 265 -60 312 -134 112 -974 403 -1275 442 -78 10 -105 31 -152
119 -26 47 -27 57 -27 185 0 121 2 139 22 178 30 57 87 119 131 142 48 26 54
25 46 -7z m6660 -93 c-3 -5 -13 -10 -21 -10 -8 0 -12 5 -9 10 3 6 13 10 21 10
8 0 12 -4 9 -10z m178 3 c-13 -2 -33 -2 -45 0 -13 2 -3 4 22 4 25 0 35 -2 23
-4z m195 0 c-10 -2 -26 -2 -35 0 -10 3 -2 5 17 5 19 0 27 -2 18 -5z m-3563
-33 c117 -7 145 -18 145 -60 0 -46 -29 -58 -174 -70 -70 -6 -131 -9 -133 -6
-3 2 0 20 5 38 6 18 14 52 17 76 6 36 10 42 23 36 10 -4 62 -10 117 -14z
m-3530 -42 c11 -71 14 -76 66 -104 27 -15 49 -33 49 -41 0 -32 -114 1 -159 46
-28 28 -29 93 -1 121 29 29 37 25 45 -22z m7018 -530 c4 -314 7 -1250 7 -2080
l0 -1509 -100 3 -100 3 0 2069 c0 1641 3 2072 13 2078 6 4 48 8 93 8 l81 0 6
-572z m195 566 l22 -6 0 -2062 c0 -1133 -4 -2067 -9 -2074 -5 -9 -30 -12 -87
-10 l-79 3 -8 270 c-10 330 -3 3833 7 3857 4 9 15 19 24 21 26 7 105 7 130 1z
m112 -191 c30 -182 80 -620 80 -705 0 -26 -3 -28 -39 -28 -47 0 -50 4 -73 90
-14 54 -18 110 -18 330 0 295 8 470 22 447 4 -8 17 -68 28 -134z m-7509 -150
c6 -20 24 -57 40 -81 16 -25 26 -48 24 -53 -5 -8 -104 -39 -124 -39 -14 0 -41
53 -41 82 0 25 64 128 79 128 5 0 15 -17 22 -37z m2364 17 c280 -7 869 -42
963 -56 l32 -5 -141 -152 c-78 -84 -160 -175 -181 -204 -22 -28 -53 -58 -71
-66 -55 -27 -452 -56 -762 -58 -354 -1 -531 38 -1090 240 -415 151 -548 214
-532 254 6 15 23 21 122 45 51 12 1231 14 1660 2z m1480 -86 c195 -16 619 -68
694 -85 54 -12 91 -34 91 -54 0 -26 -47 -46 -167 -71 -222 -45 -961 -144
-1332 -179 l-73 -7 18 32 c11 17 95 113 188 212 l169 180 116 -6 c64 -4 197
-14 296 -22z m3133 -1586 c-1 -882 -5 -1540 -9 -1463 -15 298 -8 3065 8 3065
1 0 2 -721 1 -1602z m-6692 1472 c320 -66 868 -249 1108 -369 111 -56 131 -82
142 -183 4 -40 7 -427 7 -860 -1 -434 1 -788 5 -788 3 0 27 21 53 46 l47 46
533 5 c294 2 539 1 546 -4 7 -5 22 -58 33 -118 38 -198 91 -396 141 -523 16
-40 29 -75 29 -77 0 -9 -127 -5 -285 11 -182 17 -521 19 -670 4 -148 -15 -425
-88 -605 -160 -85 -34 -204 -81 -265 -105 -223 -87 -510 -219 -547 -253 -10
-8 -18 -26 -18 -39 0 -19 10 -28 47 -45 46 -20 53 -21 812 -15 731 5 1232 21
1761 57 80 5 172 10 206 10 l60 0 41 -72 c53 -93 90 -203 98 -294 l7 -72 -383
-6 c-881 -15 -1510 -33 -2217 -62 -211 -8 -386 -13 -389 -10 -3 2 -38 76 -78
162 -82 178 -71 168 -201 180 -56 5 -77 3 -105 -11 -58 -29 -95 -62 -113 -99
-15 -32 -15 -39 -2 -63 8 -16 31 -44 51 -63 42 -39 95 -108 95 -123 0 -6 -17
-7 -41 -4 -113 15 -176 171 -150 371 20 148 73 235 155 257 283 72 590 170
781 249 139 58 302 133 314 146 12 13 -45 -9 -232 -88 -417 -175 -980 -331
-1011 -279 -6 9 4 12 249 71 289 70 584 175 899 321 174 81 276 137 276 152 0
13 -22 3 -87 -40 -32 -20 -83 -45 -113 -56 -30 -10 -102 -41 -161 -67 -139
-64 -464 -190 -505 -197 -26 -4 -33 -1 -38 15 -7 22 6 63 25 79 8 6 60 18 116
27 104 17 211 50 294 91 65 33 325 135 362 142 18 3 40 14 50 25 12 12 26 16
41 12 20 -5 24 -1 30 29 22 118 36 1852 17 2055 -10 104 -25 125 -122 175
-215 109 -622 246 -1094 367 -110 29 -202 54 -204 56 -12 12 120 1 205 -16z
m-184 -24 c24 -7 99 -26 168 -41 181 -38 258 -63 270 -85 5 -10 10 -34 10 -52
0 -48 23 -75 70 -83 22 -4 42 -10 45 -15 3 -5 -13 -22 -35 -40 -36 -29 -130
-151 -130 -169 0 -5 -6 -14 -14 -20 -15 -12 -211 -67 -276 -78 -28 -4 -41 -14
-63 -49 -40 -62 -32 -97 29 -123 45 -20 155 -45 248 -57 42 -5 55 -13 98 -57
27 -28 51 -61 54 -73 4 -14 11 -21 20 -17 10 4 14 -4 14 -30 l0 -34 -112 -7
c-144 -9 -353 -33 -443 -52 -252 -53 -776 -221 -856 -275 -35 -25 -50 -43 -67
-88 -40 -104 -20 -244 45 -314 48 -51 217 -118 548 -216 289 -86 444 -113 729
-129 78 -4 131 -11 133 -18 2 -6 -14 -33 -35 -60 -22 -27 -47 -63 -56 -81 -18
-36 -21 -38 -141 -58 -120 -21 -173 -39 -218 -76 -44 -36 -45 -48 -11 -89 37
-43 101 -73 221 -103 57 -15 112 -31 123 -37 11 -6 34 -37 50 -70 16 -32 55
-87 86 -122 l56 -63 -38 -17 c-22 -10 -44 -18 -50 -18 -24 0 -39 -34 -39 -88
l0 -55 -55 -13 c-30 -7 -152 -35 -270 -63 -251 -58 -247 -58 -405 19 -107 52
-250 161 -339 261 -272 301 -397 648 -431 1194 -16 256 45 656 137 895 59 154
203 365 331 483 74 69 147 127 159 127 5 0 22 9 36 21 55 42 109 73 192 110
93 42 142 48 212 25z m729 -205 c443 -149 657 -246 623 -281 -9 -9 -33 -3
-100 25 -424 177 -475 194 -664 224 l-105 17 -3 47 c-2 26 1 47 6 47 5 0 114
-35 243 -79z m4646 -2 c70 -40 112 -83 196 -200 106 -147 99 -139 87 -107 -5
15 -18 45 -30 67 -11 22 -20 45 -20 51 0 9 116 11 429 8 392 -3 431 -5 448
-20 16 -15 38 -18 114 -18 105 0 135 -6 143 -25 5 -14 34 -350 38 -452 3 -61
3 -62 -26 -67 -16 -3 -85 -6 -155 -6 -256 0 -684 -14 -666 -21 11 -4 129 -8
263 -8 l242 -1 -2 -507 -3 -508 -240 -3 c-139 -1 -243 -6 -249 -12 -7 -7 128
-10 389 -10 220 0 410 -3 423 -6 20 -6 22 -12 22 -83 0 -42 -7 -164 -17 -272
l-17 -196 -119 -6 c-95 -5 -124 -10 -139 -24 -19 -17 -50 -18 -438 -18 -230 0
-422 3 -426 7 -4 5 0 16 9 26 18 19 137 287 214 481 31 76 63 136 99 184 30
38 63 94 73 123 31 81 44 212 38 374 -6 175 -22 232 -96 347 -29 45 -84 151
-122 235 -97 212 -139 297 -150 303 -13 9 -13 7 37 -111 90 -213 114 -276 108
-285 -6 -11 -194 -12 -194 -1 0 4 -3 17 -6 29 -5 20 -1 23 34 29 48 8 82 36
82 68 0 12 -22 67 -48 122 -27 54 -52 111 -56 127 -3 15 -13 27 -21 27 -12 0
-9 -12 12 -57 14 -32 41 -95 60 -141 41 -99 37 -112 -39 -112 -43 0 -51 3 -56
23 -10 39 -157 328 -216 425 -31 51 -54 98 -51 103 9 14 79 11 101 -6 22 -16
34 -19 34 -7 0 15 -52 34 -115 42 -53 8 -64 14 -98 52 -21 23 -43 51 -49 62
-10 18 -7 19 52 13 43 -5 80 -17 117 -38z m-189 -12 c23 -23 42 -48 42 -54 0
-12 -46 -19 -190 -28 -338 -22 -1121 -106 -1305 -140 -44 -8 -91 -14 -105 -15
-42 0 -53 -20 -126 -232 -37 -107 -67 -244 -62 -280 l3 -23 310 2 c378 2 919
19 1275 39 490 28 547 29 564 11 9 -8 16 -20 16 -25 0 -26 -414 -38 -2370 -64
-91 -1 -171 1 -177 5 -34 21 7 247 68 374 21 45 39 86 39 91 0 5 18 30 40 54
62 71 142 106 285 123 45 5 169 24 465 70 52 8 124 17 160 20 36 3 112 12 170
20 254 34 355 46 510 60 91 9 190 20 220 24 111 17 122 15 168 -32z m-4502
-68 c83 -14 195 -52 369 -124 83 -34 160 -65 172 -69 15 -5 24 -17 27 -39 14
-91 17 -447 10 -1247 l-7 -886 -61 -23 c-34 -13 -126 -52 -206 -86 -80 -35
-189 -77 -244 -94 l-98 -32 -43 25 c-54 32 -121 106 -159 176 l-29 53 23 17
c27 20 39 77 39 175 -1 91 -9 117 -41 133 l-27 12 65 97 c36 53 78 105 94 115
34 20 50 54 81 175 21 80 23 111 24 343 0 237 -2 261 -24 345 -26 100 -55 164
-82 183 -9 6 -20 26 -24 43 -4 17 -29 60 -56 95 -27 36 -49 67 -49 68 0 2 11
7 25 10 33 8 38 33 33 166 -3 115 -10 132 -50 135 -29 3 -26 25 12 80 41 59
140 165 154 165 7 0 39 -5 72 -11z m4605 -50 c39 -39 147 -215 202 -330 54
-113 91 -208 84 -215 -17 -17 -906 -60 -1620 -77 -431 -11 -487 -10 -487 3 0
80 48 243 112 381 l39 85 137 22 c277 45 1050 123 1490 151 12 0 31 -8 43 -20z
m2198 -82 c6 -8 14 -53 17 -100 l7 -87 -76 0 c-91 0 -92 2 -81 120 l7 80 57 0
c36 0 62 -5 69 -13z m-671 -24 c16 -30 23 -96 14 -128 -12 -42 -38 -44 -46 -4
-8 42 -8 134 1 142 11 12 22 8 31 -10z m-5446 -101 c10 -12 13 -204 13 -946 0
-512 -4 -966 -8 -1010 -8 -65 -13 -83 -34 -102 -60 -56 -57 -118 -50 969 4
545 10 1019 13 1053 6 57 8 60 30 56 13 -2 29 -11 36 -20z m-908 -64 c9 -78 7
-137 -4 -159 -9 -15 -22 -19 -64 -19 -102 0 -302 48 -331 80 -20 22 -10 48 20
56 13 3 26 12 29 20 3 8 12 14 21 14 8 0 23 5 33 10 20 13 202 48 253 49 l36
1 7 -52z m-1414 -142 c-109 -257 -163 -633 -140 -975 16 -250 49 -412 127
-631 24 -69 46 -131 48 -137 10 -31 -126 -2 -170 35 -58 49 -107 173 -150 386
-53 258 -55 755 -4 1001 37 180 110 362 157 393 13 8 56 23 95 32 57 14 73 15
75 4 2 -7 -15 -55 -38 -108z m8461 64 c16 -129 21 -843 10 -1250 -7 -234 -14
-435 -18 -447 -5 -21 -11 -23 -67 -23 -35 0 -67 5 -74 12 -14 14 -17 883 -5
1446 l6 323 71 -3 71 -3 6 -55z m-682 -62 c-2 -159 -13 -199 -22 -79 -11 149
-9 191 8 191 13 0 15 -19 14 -112z m-7979 28 c0 -2 -11 -27 -25 -54 -26 -51
-95 -279 -95 -313 0 -11 -6 -22 -12 -24 -7 -3 -121 -23 -253 -45 -293 -50
-557 -101 -729 -142 -97 -23 -135 -37 -153 -54 -35 -35 -19 -48 25 -20 45 29
206 70 522 132 234 46 406 72 415 63 2 -3 -1 -61 -7 -130 -6 -74 -8 -227 -5
-381 l6 -258 -24 0 c-24 0 -408 76 -700 138 -153 33 -191 45 -218 69 -9 9 -20
13 -24 10 -7 -8 24 -45 49 -58 30 -16 638 -142 912 -189 93 -16 173 -33 178
-38 5 -5 20 -52 34 -103 30 -115 72 -245 91 -281 13 -27 12 -28 -10 -28 -48 0
-1128 242 -1254 281 -167 52 -198 143 -198 584 1 337 21 459 88 533 35 38 172
72 857 211 217 44 413 84 435 89 43 11 95 15 95 8z m2640 -286 c0 -5 -2 -10
-4 -10 -3 0 -8 5 -11 10 -3 6 -1 10 4 10 6 0 11 -4 11 -10z m4405 -48 c16 -26
41 -63 56 -82 56 -72 82 -201 82 -395 -1 -232 -28 -321 -128 -433 l-47 -52
-1423 0 -1422 0 -7 63 c-15 150 -19 519 -7 692 7 99 16 183 20 187 4 4 263 12
576 18 803 14 1978 41 1990 45 6 2 71 4 145 4 l135 1 30 -48z m928 -19 c4 -38
7 -268 7 -512 l0 -443 -168 3 c-131 3 -173 7 -187 19 -17 14 -17 42 -12 480 3
256 9 475 12 487 9 28 21 30 196 32 l146 1 6 -67z m-4240 11 l408 -6 -6 -42
c-9 -69 -25 -506 -20 -560 2 -28 7 -120 10 -203 l5 -153 -492 0 c-271 -1 -612
-5 -758 -10 -146 -4 -266 -7 -267 -6 -8 7 18 844 27 877 l11 41 107 -7 c59 -3
175 -15 257 -26 83 -10 187 -24 233 -29 115 -15 154 -29 170 -63 44 -92 56
-388 22 -522 -22 -85 -32 -102 -69 -116 -13 -5 -172 -23 -354 -40 l-329 -31
-29 28 -29 28 0 -25 c0 -36 18 -49 68 -49 103 0 675 61 702 75 54 28 80 141
80 344 0 239 -30 344 -105 369 -22 8 -179 31 -350 53 -245 32 -318 38 -350 30
-29 -7 -41 -7 -47 2 -9 15 -10 41 -1 50 3 4 162 5 352 2 190 -3 530 -8 754
-11z m-2014 -28 c12 -11 21 -29 21 -42 0 -12 5 -24 10 -26 6 -2 17 -39 27 -83
12 -61 16 -137 17 -320 1 -230 0 -245 -27 -348 -15 -59 -31 -116 -36 -126 -14
-26 -195 -43 -322 -31 -208 21 -471 70 -614 115 -269 84 -496 168 -529 194
-40 33 -66 111 -66 196 0 75 2 84 35 132 19 29 48 59 64 68 17 8 125 46 241
85 331 110 619 178 860 204 19 2 94 3 166 2 115 -1 135 -4 153 -20z m-1862
-158 c-5 -40 -7 -214 -5 -385 l4 -313 -31 1 c-16 0 -46 5 -65 12 -34 12 -35
15 -42 72 -23 209 -16 603 13 656 9 18 34 25 100 28 l35 1 -9 -72z m4277 -806
c3 -5 17 -69 31 -143 30 -150 66 -271 101 -340 27 -54 115 -149 138 -149 9 0
16 2 16 4 0 3 -26 31 -57 63 -32 32 -63 69 -70 83 -41 89 -53 124 -68 195 -9
44 -23 108 -31 142 -7 34 -14 79 -14 101 0 39 0 39 46 46 26 3 604 6 1286 6
1144 0 1239 -1 1245 -17 3 -9 0 -28 -8 -42 -16 -27 -34 -30 -93 -15 -15 4 -31
2 -35 -3 -4 -6 -69 -5 -176 3 -293 23 -730 34 -1298 34 -494 0 -548 -2 -554
-16 -15 -40 71 -358 126 -464 26 -51 31 -55 67 -58 21 -1 125 -11 230 -22 105
-11 199 -20 210 -19 41 2 -59 18 -216 34 -232 23 -230 22 -266 76 -50 75 -109
262 -121 382 l-5 62 708 -6 c390 -3 727 -9 749 -12 22 -4 155 -12 295 -17 323
-13 350 -16 350 -42 0 -30 -143 -330 -209 -438 l-58 -95 -239 3 c-131 1 -300
7 -374 13 -204 15 -396 22 -389 15 11 -11 233 -34 504 -52 143 -9 267 -16 275
-16 8 1 35 5 58 8 27 4 48 2 55 -5 6 -6 21 -11 34 -11 31 0 29 -16 -6 -50 -16
-16 -31 -36 -34 -44 -3 -8 -17 -22 -30 -31 -23 -14 -41 -14 -228 5 -553 56
-992 107 -1404 165 -193 27 -239 30 -231 16 8 -12 16 -13 436 -70 574 -78 671
-89 1164 -131 333 -28 408 -27 475 6 50 25 132 98 196 175 l30 36 265 6 c146
4 424 7 619 7 l354 0 -7 -31 c-3 -17 -6 -38 -6 -45 0 -12 -70 -14 -417 -15
-584 -2 -716 -12 -284 -22 184 -4 419 -7 523 -7 l188 0 0 -404 0 -404 -45 -6
c-28 -5 -49 -14 -55 -25 -19 -37 4 -41 256 -41 134 0 245 -4 248 -9 7 -11 -71
-45 -149 -64 -341 -86 -1295 -115 -2275 -68 -118 6 -424 17 -680 26 -256 8
-498 17 -537 21 -68 5 -73 7 -73 29 0 29 16 35 99 35 111 0 171 29 171 82 0
70 -37 88 -199 97 l-115 6 -42 95 -42 95 42 7 c22 4 167 24 321 44 395 50 678
98 718 121 17 11 38 31 46 45 13 23 13 29 -2 51 -9 15 -36 32 -64 41 -78 26
-775 120 -1183 161 -293 28 -350 37 -370 54 -51 43 -174 471 -195 683 l-7 67
63 4 c132 7 218 7 223 -1z m2849 -8 c7 -7 -32 -113 -50 -135 -7 -8 -13 -21
-13 -28 0 -7 -14 -47 -31 -89 -61 -154 -100 -232 -116 -239 -7 -3 -13 -12 -13
-21 0 -12 -3 -13 -11 -5 -10 10 -5 25 30 83 31 50 114 246 118 278 6 48 -13
69 -68 78 -32 5 -39 10 -39 30 0 37 36 54 116 54 39 0 73 -3 77 -6z m989 -256
c-3 -49 -9 -88 -13 -88 -11 0 -11 115 -2 230 l8 85 5 -70 c4 -38 4 -109 2
-157z m-1104 134 c38 -25 -219 -508 -284 -532 -31 -12 -81 -13 -88 -2 -3 5 4
24 16 43 49 81 134 239 163 304 17 39 46 98 63 133 32 61 33 62 75 62 23 0 48
-4 55 -8z m-5270 -222 c4 -78 -4 -141 -21 -163 -10 -14 -21 -15 -82 -6 -144
21 -278 72 -290 109 -17 53 44 86 196 109 109 16 131 19 164 17 30 -1 30 -1
33 -66z m7045 -37 c14 -3 17 -12 13 -31 -3 -15 -8 -57 -11 -94 -4 -37 -10 -70
-14 -72 -4 -3 -35 -8 -69 -12 l-62 -7 0 101 c0 123 8 136 79 127 25 -4 54 -9
64 -12z m-669 -34 c15 -77 5 -129 -26 -129 -19 0 -20 5 -16 69 3 37 8 73 12
80 12 19 23 12 30 -20z m-9613 -99 c30 -17 46 -58 79 -202 38 -170 42 -186 97
-351 24 -76 42 -144 39 -152 -7 -21 -40 -19 -59 3 -28 30 -96 186 -138 315
-50 150 -102 363 -95 383 6 16 49 19 77 4z m8389 -41 c0 -7 -58 -87 -86 -119
-7 -8 -27 -32 -44 -52 -44 -53 -113 -95 -177 -108 -85 -18 -91 -10 -37 59 47
60 64 71 121 71 17 0 44 5 60 11 31 11 83 57 83 72 0 18 48 74 64 74 9 0 16
-4 16 -8z m1876 -150 c-7 -93 -58 -504 -76 -614 -21 -124 -33 -174 -41 -169
-12 7 -11 689 1 734 37 142 35 140 89 140 l34 0 -7 -91z m-5031 -39 c55 -5
169 -16 254 -24 171 -16 163 -12 227 -110 32 -49 259 -281 313 -321 22 -16 41
-33 41 -36 0 -3 -44 -9 -97 -13 -54 -3 -150 -11 -213 -16 -112 -9 -535 -27
-1215 -51 -352 -12 -1185 -7 -1245 8 -24 6 -36 15 -38 29 -2 17 11 28 65 57
79 41 494 218 633 270 52 20 131 50 174 67 190 76 420 129 606 139 198 11 382
12 495 1z m898 -90 c686 -77 1044 -126 1115 -156 29 -12 33 -17 30 -46 -3 -29
-8 -34 -48 -45 -120 -35 -879 -143 -1003 -143 -71 0 -99 14 -197 95 -98 82
-310 300 -310 320 0 21 1 21 413 -25z m3536 -502 c0 -117 -4 -185 -9 -173 -16
38 -11 365 6 365 2 0 4 -87 3 -192z m-6956 160 c15 -6 27 -18 27 -27 -1 -22
-53 -123 -65 -124 -6 0 -25 21 -42 47 -25 36 -31 55 -27 75 13 54 32 59 107
29z m267 -297 c0 -5 -24 -25 -54 -46 -42 -29 -59 -48 -75 -87 -18 -43 -23 -49
-36 -38 -8 7 -15 28 -15 46 0 49 51 102 115 119 62 17 65 17 65 6z m195 -179
c36 -78 65 -153 65 -167 0 -14 4 -25 10 -25 12 0 88 -155 96 -199 5 -25 4 -33
-6 -29 -14 4 -67 99 -94 168 -10 25 -54 123 -98 218 -48 104 -77 179 -74 189
11 29 32 -3 101 -155z m3229 158 c65 -6 125 -15 132 -21 37 -30 0 -100 -51
-98 -17 0 -17 2 5 10 24 10 40 26 40 42 0 17 -42 47 -68 47 -52 0 -69 -43 -32
-80 11 -11 20 -22 20 -25 0 -3 -38 -5 -84 -5 -95 0 -92 -2 -102 86 -5 42 -4
54 7 54 8 0 68 -5 133 -10z m-3333 -80 c55 -108 229 -498 229 -516 0 -25 -93
32 -171 104 -38 35 -99 101 -135 146 -115 142 -142 225 -86 258 15 9 43 33 62
53 19 19 41 34 48 33 8 -2 31 -37 53 -78z m3417 13 c2 -8 -6 -13 -22 -13 -25
0 -33 10 -19 24 10 10 36 3 41 -11z m3512 -23 c0 -5 -4 -10 -10 -10 -5 0 -10
5 -10 10 0 6 5 10 10 10 6 0 10 -4 10 -10z"/>
<path d="M8069 8021 c-70 -74 -60 -132 31 -178 110 -57 240 0 240 103 0 69
-66 114 -166 114 -65 0 -68 -1 -105 -39z m168 -27 c12 -3 27 -19 34 -35 16
-39 -6 -64 -75 -84 l-50 -15 -23 27 c-59 73 7 135 114 107z"/>
<path d="M1807 8530 c-151 -18 -392 -89 -533 -157 -123 -59 -192 -142 -270
-322 -52 -120 -106 -356 -139 -610 l-7 -54 63 6 c78 8 206 40 624 158 413 117
408 114 425 336 5 71 11 232 15 358 l6 231 -23 21 c-22 21 -71 45 -86 42 -4
-1 -37 -5 -75 -9z m130 -46 l26 -26 -7 -292 c-7 -321 -19 -422 -55 -460 -31
-33 -120 -69 -275 -111 -71 -19 -133 -35 -138 -35 -11 0 -10 200 2 356 18 225
57 481 81 525 14 27 176 66 282 68 50 1 62 -3 84 -25z m-415 -76 c-2 -18 -14
-98 -27 -178 -22 -136 -43 -390 -48 -595 l-2 -89 -270 -68 c-148 -37 -271 -67
-272 -68 -7 -1 0 94 12 165 45 269 46 274 99 418 52 143 91 210 158 273 65 59
98 78 233 135 114 48 123 48 117 7z"/>
<path d="M2270 8374 c-15 -38 -27 -144 -36 -301 -7 -143 -2 -163 42 -163 52 0
62 37 73 275 9 190 6 209 -37 213 -27 3 -34 -1 -42 -24z m60 -14 c8 -15 7 -70
-5 -203 -18 -209 -20 -217 -46 -217 -18 0 -19 8 -19 103 0 56 5 146 10 200 12
127 33 167 60 117z"/>
<path d="M2422 8383 c-20 -38 -33 -135 -39 -283 -5 -139 -4 -158 11 -173 40
-39 72 -11 86 73 17 110 25 353 11 378 -14 27 -56 29 -69 5z m47 -150 c0 -234
-12 -292 -58 -293 -11 0 -12 24 -7 138 7 138 22 267 32 283 3 5 12 9 20 9 11
0 14 -24 13 -137z"/>
<path d="M2571 8386 c-16 -19 -29 -111 -39 -276 -9 -144 -6 -177 21 -194 52
-33 75 49 84 302 l6 182 -30 0 c-17 0 -36 -6 -42 -14z m53 -121 c-13 -189 -26
-300 -36 -312 -6 -7 -17 -13 -26 -13 -13 0 -14 19 -9 153 9 222 31 316 64 271
10 -13 12 -40 7 -99z"/>
<path d="M696 8029 c-40 -35 -69 -83 -119 -200 -82 -192 -164 -507 -136 -524
6 -4 31 -4 56 0 69 10 96 43 117 140 25 120 93 338 137 444 47 113 50 147 13
161 -33 13 -28 14 -68 -21z m69 -9 c3 -5 -17 -67 -44 -137 -58 -152 -103 -293
-134 -422 -24 -102 -43 -127 -102 -133 -36 -4 -37 6 -5 132 59 237 153 468
218 538 30 32 56 41 67 22z"/>
<path d="M440 6401 c0 -98 3 -199 6 -225 l7 -46 53 0 54 0 0 225 0 225 -60 0
-60 0 0 -179z m90 133 c6 -14 10 -99 10 -189 0 -152 -1 -165 -19 -175 -11 -5
-29 -10 -40 -10 -20 0 -20 4 -14 193 4 122 10 195 17 199 21 14 36 8 46 -18z"/>
<path d="M870 5290 c0 -100 63 -425 115 -590 34 -106 95 -226 145 -282 70 -80
203 -144 419 -204 139 -38 275 -64 338 -64 30 0 50 7 72 26 29 24 31 30 31 97
0 105 -29 541 -41 616 -24 154 -50 170 -489 296 -206 60 -543 145 -572 145
-14 0 -18 -9 -18 -40z m130 -11 c41 -12 158 -43 260 -68 l185 -47 6 -195 c7
-207 19 -351 46 -571 9 -76 14 -141 10 -145 -4 -4 -22 0 -40 10 -18 9 -63 28
-102 42 -38 14 -88 37 -111 50 -74 44 -184 180 -184 230 0 8 -4 15 -9 15 -12
0 -64 135 -84 220 -25 100 -67 388 -67 453 0 15 3 27 8 27 4 0 41 -10 82 -21z
m621 -164 c218 -65 262 -89 288 -158 25 -66 67 -654 51 -722 -13 -57 -32 -68
-110 -61 -75 7 -268 52 -286 67 -23 19 -52 256 -79 644 -15 208 -14 265 7 265
6 0 64 -16 129 -35z"/>
<path d="M2244 4704 c-14 -21 -16 -41 -10 -127 9 -145 33 -317 47 -333 18 -21
57 -17 70 8 21 40 -11 437 -38 464 -22 21 -51 17 -69 -12z m56 -23 c10 -20 25
-143 35 -301 5 -74 3 -99 -8 -114 -20 -28 -33 -14 -45 51 -16 82 -34 328 -26
358 7 30 29 33 44 6z"/>
<path d="M2385 4710 c-16 -17 -17 -31 -11 -102 4 -46 11 -134 17 -196 5 -62
12 -124 15 -138 12 -47 76 -56 87 -12 6 23 -9 324 -19 396 -10 69 -52 93 -89
52z m59 -27 c7 -23 25 -237 28 -330 2 -76 -10 -109 -34 -85 -12 12 -36 247
-37 365 -1 60 1 67 18 67 11 0 22 -8 25 -17z"/>
<path d="M2546 4718 c-13 -7 -16 -28 -16 -123 0 -146 18 -314 36 -342 8 -13
23 -23 34 -23 11 0 25 10 32 23 23 41 6 376 -23 439 -13 30 -38 40 -63 26z
m43 -41 c13 -34 31 -217 31 -317 0 -91 -11 -119 -36 -86 -20 28 -47 362 -32
404 10 28 26 28 37 -1z"/>
<path d="M6970 8467 c-35 -17 -38 -52 -6 -72 33 -22 73 -13 88 21 9 20 9 28
-3 38 -22 22 -52 27 -79 13z m48 -40 c2 -11 -3 -17 -16 -17 -20 0 -36 23 -24
34 11 12 37 1 40 -17z"/>
<path d="M6936 7874 c-23 -22 -20 -41 10 -61 23 -15 30 -15 67 -2 49 17 67 40
48 63 -18 22 -104 22 -125 0z m104 -18 c0 -17 -22 -26 -61 -26 -32 0 -38 14
-11 29 26 15 72 13 72 -3z"/>
<path d="M6783 7865 c-25 -11 -33 -20 -33 -40 0 -50 95 -57 126 -10 12 18 11
24 -2 43 -17 25 -45 27 -91 7z m62 -30 c0 -15 -8 -21 -32 -23 -36 -4 -42 8
-17 33 21 21 49 15 49 -10z"/>
<path d="M6614 7846 c-43 -19 -48 -32 -24 -56 37 -37 130 -16 130 30 0 37 -51
49 -106 26z m79 -31 c-3 -16 -62 -30 -75 -17 -5 5 -7 15 -3 22 8 13 81 9 78
-5z"/>
<path d="M6453 7833 c-38 -19 -43 -30 -32 -60 7 -20 16 -23 58 -23 42 0 51 4
66 27 18 26 17 27 -9 50 -31 27 -40 27 -83 6z m72 -32 c7 -13 -27 -31 -59 -31
-24 0 -35 18 -19 33 10 10 71 8 78 -2z"/>
<path d="M4758 5640 c-4 -36 -12 -133 -17 -215 -5 -91 -15 -165 -24 -186 -14
-35 -25 -43 -132 -104 -27 -16 -44 -30 -37 -33 20 -6 120 49 167 93 l43 40 7
185 c4 102 5 208 3 235 l-3 50 -7 -65z"/>
<path d="M8810 7553 c0 -14 105 -164 108 -154 2 5 -4 23 -12 40 -9 16 -16 37
-16 46 0 9 -4 14 -8 11 -5 -3 -15 6 -23 20 -13 25 -49 52 -49 37z"/>
<path d="M9248 7323 c-30 -5 -68 -46 -68 -72 0 -9 12 -29 26 -45 l26 -30 336
11 c327 11 337 12 354 33 10 12 18 35 18 50 0 54 -6 55 -349 56 -174 1 -328 0
-343 -3z m657 -44 c18 -18 18 -20 3 -35 -23 -24 -245 -37 -473 -28 -228 8
-249 15 -208 73 l16 24 321 -7 c298 -7 322 -9 341 -27z"/>
<path d="M9273 7132 c-31 -42 -29 -65 10 -98 l32 -27 316 6 c174 4 328 11 342
16 43 17 48 89 8 110 -9 5 -167 13 -351 17 l-335 7 -22 -31z m687 -22 c24 -24
25 -33 3 -51 -13 -11 -82 -15 -325 -18 -272 -3 -311 -1 -333 13 -29 19 -32 38
-9 60 13 14 57 16 330 16 301 0 315 -1 334 -20z"/>
<path d="M9326 6831 c6 -6 39 -16 74 -22 74 -12 115 -31 132 -62 8 -16 12
-109 12 -335 l1 -314 -32 -29 c-18 -16 -43 -31 -55 -33 -13 -2 -43 -9 -68 -14
l-45 -10 58 -1 c87 -2 123 18 152 81 36 81 55 192 55 330 0 159 -13 238 -51
315 -26 50 -38 65 -70 77 -49 20 -179 33 -163 17z m263 -383 c0 -51 -4 -102
-9 -113 -6 -13 -9 20 -9 93 -1 68 3 112 9 112 6 0 10 -37 9 -92z"/>
<path d="M9272 5800 c-30 -39 -28 -74 4 -99 26 -20 38 -21 293 -20 321 0 408
7 427 34 22 30 16 61 -17 89 l-31 26 -327 0 -327 0 -22 -30z m671 -9 c30 -12
39 -34 23 -56 -12 -16 -43 -18 -328 -23 -344 -5 -362 -3 -356 46 2 22 9 28 38
33 57 10 596 10 623 0z"/>
<path d="M9258 5641 c-52 -11 -68 -27 -68 -72 0 -79 57 -87 477 -72 264 10
273 13 273 85 0 65 -19 68 -357 67 -158 -1 -305 -5 -325 -8z m605 -27 c56 -8
71 -34 38 -68 -21 -20 -31 -21 -309 -24 -296 -3 -358 2 -376 30 -13 22 15 55
53 61 44 7 545 7 594 1z"/>
<path d="M8650 6874 c-112 -7 -214 -15 -226 -18 -25 -7 -37 -41 -23 -68 9 -17
26 -18 222 -18 209 0 329 11 354 32 20 16 15 55 -9 72 -26 18 -35 18 -318 0z
m295 -35 c4 -6 4 -13 1 -17 -6 -6 -364 -31 -456 -31 -55 -1 -81 12 -62 31 21
21 505 37 517 17z"/>
<path d="M8580 6820 c-23 -7 -23 -8 -3 -9 12 -1 25 4 28 9 3 6 5 10 3 9 -2 -1
-14 -5 -28 -9z"/>
<path d="M7665 6845 c-5 -2 -22 -6 -37 -9 -31 -7 -44 -37 -28 -66 11 -21 15
-21 284 -18 240 3 275 5 299 21 31 20 34 38 11 61 -13 14 -51 16 -267 15 -139
0 -256 -2 -262 -4z m437 -27 c77 -3 90 -20 26 -30 -52 -8 -498 -11 -506 -3
-25 25 177 48 348 39 36 -1 95 -4 132 -6z"/>
<path d="M6863 6831 c-108 -7 -135 -23 -115 -65 8 -18 22 -27 49 -32 40 -8
483 3 546 13 46 7 66 38 48 72 -11 20 -17 21 -224 19 -117 -1 -254 -4 -304 -7z
m497 -35 c0 -9 -15 -17 -37 -20 -55 -9 -513 -25 -530 -19 -26 10 -9 38 27 44
19 4 149 7 288 8 211 1 252 -1 252 -13z"/>
<path d="M6890 6073 c-91 -4 -127 -11 -145 -29 -14 -14 -13 -19 2 -46 l18 -31
268 6 c221 5 273 9 293 22 29 19 32 60 5 75 -18 9 -269 11 -441 3z m401 -23
c67 -36 -22 -50 -324 -50 -151 0 -179 2 -184 15 -3 9 -4 18 -1 20 2 2 112 8
243 13 132 5 241 10 243 10 2 1 12 -3 23 -8z"/>
<path d="M7567 6062 c-23 -25 -15 -60 17 -72 34 -12 553 -17 564 -5 18 19 22
51 8 70 -13 18 -32 19 -292 23 -271 4 -280 4 -297 -16z m511 -18 c44 -4 62
-10 62 -20 0 -12 -42 -14 -257 -14 -142 0 -268 3 -281 6 -28 8 -24 26 9 35 26
7 362 2 467 -7z"/>
<path d="M8495 6073 c-76 -6 -85 -11 -85 -43 0 -20 7 -33 22 -41 27 -15 315
-32 440 -26 107 4 131 15 126 56 -2 20 -11 29 -38 37 -34 11 -386 24 -465 17z
m405 -42 c36 -3 64 -10 63 -16 -4 -16 -165 -23 -341 -15 -164 7 -211 19 -161
39 24 11 303 5 439 -8z"/>
<path d="M7523 5253 c9 -2 25 -2 35 0 9 3 1 5 -18 5 -19 0 -27 -2 -17 -5z"/>


</g>
</svg>
